{"title":"Cafe.Rel.2011.DvDRip.XviD.Ac3.Feel-Free","uid":6940682,"size":1325345495,"categoryP":"video","categoryS":"movies","magnet":"?xt=urn:btih:f8b5c6235b401d75b84048eb06eb07ea8f94f298&amp;dn=Cafe.Rel.2011.DvDRip.XviD.Ac3.Feel-Free&amp;tr=udp%3A%2F%2Ftracker.openbittorrent.com%3A80&amp;tr=udp%3A%2F%2Fopen.demonii.com%3A1337&amp;tr=udp%3A%2F%2Ftracker.coppersurfer.tk%3A6969&amp;tr=udp%3A%2F%2Fexodus.desync.com%3A6969","seeders":0,"leechers":1,"uploader":"rcbcsk","files":-1,"time":1326017884,"description":"Genre:Drama\nLanguage:English\nIMDb:http://www.imdb.com/title/tt1436572/\nSource:DVD Thanks!\n\nFormat : AVI\nFormat/Info : Audio Video Interleave\nFile size : 1.23 GiB\nDuration : 1h 38mn\nOverall bit rate : 1 796 Kbps\n\nVideo\nID : 0\nFormat : MPEG-4 Visual\nFormat profile : Advanced Simple@L5\nFormat settings, BVOP : Yes\nFormat settings, QPel : No\nFormat settings, GMC : No warppoints\nFormat settings, Matrix : Default (H.263)\nCodec ID : XVID\nCodec ID/Hint : XviD\nDuration : 1h 38mn\nBit rate : 1 338 Kbps\nWidth : 640 pixels\nHeight : 360 pixels\nDisplay aspect ratio : 16:9\nFrame rate : 25.000 fps\nColor space : YUV\nChroma subsampling : 4:2:0\nBit depth : 8 bits\nScan type : Progressive\nBits/(Pixel*Frame) : 0.232\nStream size : 941 MiB (75%)\nWriting library : XviD 1.2.1 (UTC 2008-12-04)\n\nAudio\nID : 1\nFormat : AC-3\nFormat/Info : Audio Coding 3\nMode extension : CM (complete main)\nCodec ID : 2000\nDuration : 1h 38mn\nBit rate mode : Constant\nBit rate : 448 Kbps\nChannel(s) : 6 channels\nChannel positions : Front: L C R, Side: L R, LFE\nSampling rate : 48.0 KHz\nBit depth : 16 bits\nStream size : 315 MiB (25%)\nAlignment : Aligned on interleaves\nInterleave, duration : 40 ms (1.00 video frame)\nInterleave, preload duration : 512 ms\n\n\nPlot:\nWhen tragedy strikes the community surrounding a cafe in West Philadelphia, the cafe's regulars come to realize how intertwined their lives truly are","torrent":{"xt":"urn:btih:f8b5c6235b401d75b84048eb06eb07ea8f94f298","amp;dn":"Cafe.Rel.2011.DvDRip.XviD.Ac3.Feel-Free","amp;tr":["udp%3A%2F%2Ftracker.openbittorrent.com%3A80","udp%3A%2F%2Fopen.demonii.com%3A1337","udp%3A%2F%2Ftracker.coppersurfer.tk%3A6969","udp%3A%2F%2Fexodus.desync.com%3A6969"],"infoHash":"f8b5c6235b401d75b84048eb06eb07ea8f94f298","infoHashBuffer":{"type":"Buffer","data":[248,181,198,35,91,64,29,117,184,64,72,235,6,235,7,234,143,148,242,152]},"announce":[],"urlList":[]}}